<svg width="34" height="41" viewBox="0 0 34 41" fill="none" xmlns="http://www.w3.org/2000/svg">
<path d="M22.1973 40.1C30.1973 40.1 34.4973 30.4 28.9973 24.7L28.8973 24.6L16.8973 12.6L4.89733 24.6L4.79733 24.7C-0.802674 30.4 3.59734 40.1 11.5973 40.1H22.1973Z" fill="#201B21"/>
<path d="M4.89735 16.4L6.39735 17.9L16.8973 7.39999L27.3973 17.9L28.8973 16.4C32.6973 12.6 34.1973 7.70001 33.7973 3.10001C33.5973 1.30001 32.0973 0 30.2973 0H3.59736C1.79736 0 0.197359 1.30001 0.0973589 3.10001C-0.402641 7.70001 0.997346 12.5 4.89735 16.4Z" fill="#201B21"/>
</svg>
